# xmcd
#
# Track frame offsets: 
#        150
#        18788
#        34711
#        46443
#        68093
#        81297
#        100062
#        118016
#        137243
#        148662
#        170238
#        183528
#
# Disc length: 2639 seconds
#
# Revision: 0
# Processed by: cddbd v1.5.2PL0 Copyright (c) Steve Scherf et al.
# Submitted via: ExactAudioCopyFreeDBPlugin 1.0
#
DISCID=a80a4d0c
DTITLE=Dion - Bronx in Blue
DYEAR=2006
DGENRE=Blues
TTITLE0=Walkin' Blues
TTITLE1=You're the One
TTITLE2=I Let My Baby Do That
TTITLE3=Who Do You Love
TTITLE4=Built for Comfort
TTITLE5=Crossroads
TTITLE6=Travelin' Riverside Blues
TTITLE7=You Better Watch Yourself
TTITLE8=How Many More Years
TTITLE9=Terraplane Blues
TTITLE10=Honky Tonk Blues
TTITLE11=Baby, What You Want Me to Do
EXTD=
EXTT0=
EXTT1=
EXTT2=
EXTT3=
EXTT4=
EXTT5=
EXTT6=
EXTT7=
EXTT8=
EXTT9=
EXTT10=
EXTT11=
PLAYORDER=
